<svg viewBox="0 0 1051 987" fill="none" xmlns="http://www.w3.org/2000/svg">
  <path d="M748.244 80.7207C751.913 80.4589 755.057 83.6036 755.058 87.2725V168.256L896.582 161.442C900.251 161.18 903.396 164.325 903.396 167.994V248.715L1044.66 241.901L1043.87 242.163C1047.54 241.901 1050.69 245.046 1050.69 248.715V660.446C1050.69 718.104 1044.4 766.066 1032.08 803.281C1017.4 848.097 990.669 887.934 952.93 921.742C929.604 942.185 899.203 958.433 861.987 969.965C825.558 981.234 785.983 987.001 743.788 987.001C716.27 987.001 688.751 984.38 662.543 978.876C635.811 973.11 609.865 964.461 585.491 952.405C559.021 939.301 536.219 923.577 517.35 905.493C508.963 897.893 504.77 896.058 503.197 895.796H502.935C480.134 890.292 458.118 882.43 437.414 872.209C410.944 859.105 387.881 843.38 369.011 825.034C360.624 817.434 356.431 815.599 354.858 815.337H354.597C332.058 809.833 310.042 801.97 289.338 791.749C277.806 785.983 267.061 779.694 257.102 773.142C252.909 770.259 254.219 765.017 258.937 765.017C264.44 765.279 261.558 765.279 275.448 765.279C289.338 765.279 303.229 764.755 316.595 763.444C318.167 763.444 325.506 764.755 327.603 765.541C342.541 771.307 358.266 776.025 374.253 779.432C378.97 780.48 383.426 781.267 388.144 782.053C388.93 782.315 389.978 782.576 390.764 782.576C392.336 782.838 394.171 783.362 396.006 783.362C397.316 783.624 398.364 783.887 399.412 783.887C400.985 783.887 402.82 784.411 404.393 784.411C405.441 784.673 406.751 784.936 408.062 784.936C409.634 785.198 411.206 785.459 412.778 785.459C414.089 785.721 415.661 785.722 416.972 785.722C418.544 785.984 419.855 785.983 421.428 785.983C423 786.245 424.572 786.246 426.145 786.246H447.636C485.638 786.246 521.543 781.004 554.041 770.783C557.448 769.735 560.331 768.686 563.476 767.638C564 767.376 564.262 767.113 564.786 767.113C567.669 766.065 570.29 765.017 573.173 763.969C573.697 763.969 574.221 763.445 574.745 763.444C577.366 762.396 580.249 761.085 582.87 760.037C583.132 759.775 583.656 759.514 583.918 759.514C586.801 758.465 589.422 757.154 592.043 755.844C594.926 754.533 597.285 753.223 599.905 751.913C600.429 751.651 600.692 751.389 600.954 751.389C603.313 750.078 605.672 748.506 608.03 747.195C608.292 747.195 608.816 746.671 609.078 746.671C611.437 745.098 613.796 743.788 615.893 742.216C615.893 741.954 616.417 741.691 616.417 741.691C618.514 740.119 620.872 738.547 622.969 736.975C625.59 734.878 628.211 732.781 630.569 730.685C663.329 701.594 686.13 667.523 698.71 629.259C709.979 595.974 715.483 552.206 715.483 499.004V128.42C715.483 124.751 712.338 121.867 708.669 121.867L606.981 126.847C604.623 127.109 602.527 125.013 602.526 122.654V91.7285C602.526 89.3699 604.361 87.5354 606.457 87.5352L748.244 80.7207ZM908.9 287.766C905.493 287.766 902.872 290.649 902.872 294.056V579.725C902.872 637.383 896.582 685.344 884.265 722.56C869.588 767.376 842.855 807.212 805.115 841.021C781.79 861.463 751.388 877.713 714.173 889.244C678.006 900.514 638.432 906.279 596.761 906.279C593.878 906.541 588.112 907.328 590.732 910.211C594.926 912.57 599.119 914.928 603.312 917.024C624.803 927.508 647.342 935.108 670.93 940.088C694.517 945.067 706.311 947.426 744.312 947.426C782.314 947.426 818.22 942.184 850.718 931.963C882.692 922.266 908.376 908.637 927.246 891.864C960.006 862.773 982.807 828.703 995.387 790.439C1006.66 757.155 1012.16 713.387 1012.16 660.185H1011.64V289.601C1011.64 285.931 1008.49 283.048 1004.82 283.048L908.9 287.766ZM761.086 207.307C757.679 207.307 755.058 210.19 755.058 213.597V499.004C755.058 556.662 748.768 604.623 736.45 641.839C721.774 686.655 695.041 726.491 657.302 760.3C633.976 780.742 603.574 796.991 566.358 808.522C530.191 819.792 490.879 825.558 449.208 825.558C449.154 825.557 435.338 825.308 445.539 831.324C448.684 833.159 452.091 834.993 455.498 836.565C461.526 839.448 467.554 842.331 473.582 844.689C477.513 846.262 481.182 847.835 485.113 849.146C485.637 849.408 485.9 849.407 486.162 849.407C490.093 850.718 494.024 852.029 497.955 853.339C501.624 854.649 505.294 855.435 508.963 856.483C509.749 856.745 510.798 857.27 511.584 857.27H511.846C515.515 858.318 519.184 859.104 523.115 859.891C546.703 864.87 558.496 867.229 596.498 867.229C634.5 867.229 670.405 861.988 702.903 851.767C730.946 842.856 754.272 831.323 772.355 817.171C773.404 816.123 774.714 815.336 775.763 814.288C776.811 813.24 778.121 812.453 779.169 811.405C811.929 782.314 834.731 748.243 847.311 709.979C858.58 676.695 864.084 632.927 864.084 579.725V209.141C864.084 205.472 860.939 202.589 857.27 202.589L761.086 207.307ZM551.322 0C557.384 0.603903 564.108 3.52243 565.907 12.6797V400.122L566.097 400.323C566.097 460.2 560.035 509.31 548.102 547.45C534.084 592.534 509.174 632.084 473.278 665.998C451.873 686.125 423.554 702.025 388.416 713.698C353.278 725.372 315.203 731.209 274.382 731.209C247.484 731.209 221.248 728.391 195.865 722.856C170.388 717.221 145.952 708.365 122.558 696.188C81.1682 674.451 49.7234 645.77 28.3184 610.246C12.0281 583.578 2.65199 556.005 0 527.425C1.13655 514.242 11.9336 505.486 18.5635 501.36L147.846 437.961C151.918 436.351 171.619 430.01 174.839 450.842C174.934 453.156 175.123 455.471 175.312 457.584C176.07 466.239 177.207 473.485 178.628 479.12C181.659 490.794 187.91 502.166 197.381 513.336C219.354 538.796 245.4 551.476 275.424 551.476C288.873 551.476 302.038 548.86 314.824 543.526C327.516 538.293 339.545 529.739 350.815 518.065C362.086 506.392 369.852 493.611 374.114 479.824C378.376 466.037 380.46 449.332 380.46 429.709V32.3037H380.649C379.323 14.894 389.837 9.45976 398.267 7.84961C398.521 7.83668 540.617 0.613509 540.809 0.704102C540.809 0.704102 541.188 0.603564 541.661 0.50293L551.322 0Z" fill="#363636"/>
</svg>
