<?xml version="1.0" encoding="UTF-8"?><svg id="Layer_1" xmlns="http://www.w3.org/2000/svg" viewBox="0 0 589.93 589.93"><defs><style>.cls-1{stroke-width:4.29px;}.cls-1,.cls-2,.cls-3,.cls-4,.cls-5{stroke-miterlimit:10;}.cls-1,.cls-4{stroke:#d62b1f;}.cls-1,.cls-4,.cls-5,.cls-6{fill:#fff;}.cls-7,.cls-8{stroke-linejoin:round;}.cls-7,.cls-8,.cls-2{stroke-width:4.2px;}.cls-7,.cls-8,.cls-2,.cls-3{stroke-linecap:round;}.cls-7,.cls-8,.cls-2,.cls-3,.cls-5{stroke:#fff;}.cls-7,.cls-9{fill:#d62b1f;}.cls-10{fill:#e01f27;}.cls-10,.cls-9,.cls-6{stroke-width:0px;}.cls-8,.cls-2,.cls-3{fill:none;}.cls-3{stroke-width:4.33px;}.cls-4{stroke-width:5.06px;}.cls-5{stroke-width:30px;}</style></defs><rect class="cls-5" x="15" y="15" width="559.93" height="559.93"/><path class="cls-1" d="M215.54,209.6s-15.89-23.54-17.68-39.26c-1.29-11.33-1.06-25.32,4.15-37.32,4.21-9.72-4.75-17.42-11.22-10.62-9.37,9.85-23.4,27.05-25.76,47.5-3.97,34.48,9.28,57.86,9.28,57.86,0,0,13.96,2.35,24.52-2.58,10.55-4.93,16.72-15.58,16.72-15.58Z"/><polygon class="cls-10" points="161.49 367.37 162.19 367.27 161.75 367.18 161.49 367.37"/><path class="cls-9" d="M38.63,538.84v30.32h536.3v-270.56c-2.98-.04-6.64,1.84-8.97-.05-13.8-11.14-68.96,4.98-87.45,13.3.31-20.01-5.81-61.69-19.51-84.51-20.77-34.6-42.71-60.44-69.63-75.71-31.44-17.83-48.94-29.31-57.31-42.57-.96-1.52-2.6-2.42-4.4-2.42-1.79,0-3.44.91-4.39,2.43-3.68,5.85-4.76,12.32-5.05,17.53-11.59-11.98-24.12-18.58-36.27-24.98-13.3-7.01-25.86-13.62-37.18-26.96-1.48-1.74-3.89-2.31-6-1.42-2.11.9-3.36,3.03-3.13,5.3.92,8.91,4.78,20.11,8.59,29.82-2.45-1.8-4.98-3.5-7.54-5.08-2.11-1.3-4.87-.92-6.55.9-1.63,1.77-1.84,4.4-.59,6.23,1.03,2.15,3.24,16.6.93,25.13-2.12,7.84-12.67,15.33-33.7,30.25l-4.56,3.24-.24.18c-21.94,17.59-35.8,40.6-40.07,66.53-3.72,22.61.43,45.68,11.66,64.88.28.56.55,1.07.79,1.53l-.06.19c-4.66,9.94-18.65,43.96-3.29,65.12l-.26-.36-.15.87c-.06.36-.11.73-.19,1.29l-.04.32c-1.66,14.05,6.35,33.31,24.77,43.99-31.39,20.16-65.85,47.06-97.27,75.96-15.6,14.35-42.31,38.23-49.25,49.34ZM302.58,502.26"/><path class="cls-9" d="M574.93,574.93H15V15h559.93v559.93ZM51.09,538.84h487.75V51.09H51.09v487.75Z"/><path class="cls-4" d="M352.19,174.08c4.41-6.59,8.65-14.01,10.56-20.44,3.85-12.91,4.93-28.43,3.38-42.21-1.12-9.94,7.18-11.67,11.24-7.88,11.29,10.55,25.02,31.11,25.65,52.83.6,20.73-5.01,37.09-9.99,47.38-3.81,7.88-12.48-1.95-24.54-8.36-12.06-6.4-22.94-11.38-16.3-21.32Z"/><path class="cls-7" d="M341.9,191.61s9.12-19.77,5.82-42.13c0,0,20.54,16.82,22.29,42.88,0,0,30.01-5.42,45.21-1.04,0,0-20.31,6.88-23.03,25.42"/><path class="cls-6" d="M278.46,239.28c4.16,30.7-16.14,59.39-45.34,64.09-29.21,4.7-56.26-16.37-60.42-47.07-4.16-30.7,16.14-59.39,45.34-64.09,29.21-4.7,56.26,16.37,60.42,47.07Z"/><path class="cls-9" d="M249.54,248.06c-.2,19.24-13.89,29.47-30.65,29.6-16.76.14-30.24-9.86-30.05-29.1.2-19.24,13.89-29.47,30.65-29.6,16.76-.14,30.24,9.86,30.05,29.1Z"/><polygon class="cls-6" points="188.08 261.63 217.07 247.28 187.01 241.47 188.08 261.63"/><path class="cls-9" d="M178.26,217.7s54-18.35,101.23,3.1v-26.93l-80.32-8.66-20.92,32.5Z"/><path class="cls-3" d="M170.36,222.35c17.1-6.83,63.59-21.67,109.96-3.76"/><path class="cls-3" d="M198.33,189.72c13.99-4.53,35.57-8.75,56.69-3.66"/><path class="cls-2" d="M154.67,367.37s103.94,0,159.4-24.89"/><path class="cls-6" d="M170.13,367.04s-5.59-21.39-.24-37c1.5-4.38,7.45-4.95,9.76-.94,6.13,10.63,17.15,28.77,24.99,35.94"/><path class="cls-6" d="M303.15,348.05s-.04-22.11-9.2-35.83c-2.57-3.85-8.47-2.89-9.68,1.57-3.21,11.84-9.25,32.19-15,41.13"/><path class="cls-8" d="M307.61,467.64c47.11-19.47,67.73-50.21,67.73-50.21,3.07,11.3,3.55,31.42,3.55,31.42,27.33-26.27,53.2-72.05,53.2-72.05,9.77,8.94,8.91,25.17,8.91,25.17,24.9-29.92,32.77-65.36,32.77-65.36"/><path class="cls-8" d="M198.33,423.26c13.89,10.73,17.22,46.27,17.22,46.27,0,0,8.26-3.4,13.33-17.89,0,0,6.52,38.64,29.83,82.12,0,0,4.58-38.31,22.7-51.61"/></svg>